<svg xmlns="http://www.w3.org/2000/svg" viewBox="0 0 164.1 133.08"><defs><style>.cls-1{fill:#fff;}.cls-2,.cls-7{fill:#d8f3ec;}.cls-3,.cls-5{fill:#ffe246;}.cls-4,.cls-6{fill:#ffc2af;}.cls-5,.cls-6,.cls-7{isolation:isolate;font-size:45px;font-family:Nunito-Regular, Nunito;}</style></defs><g id="Calque_2" data-name="Calque 2"><g id="Calque_2-2" data-name="Calque 2"><g id="Groupe_31" data-name="Groupe 31"><circle id="Ellipse_16" data-name="Ellipse 16" class="cls-1" cx="79.8" cy="65.58" r="7.79"/><path id="Tracé_53" data-name="Tracé 53" class="cls-2" d="M71.51,61S79.73,37,66.2,24.65,57.71,0,57.71,0,26,9.83,46.4,45.34C53.92,56.3,71.51,61,71.51,61Z"/><path id="Tracé_54" data-name="Tracé 54" class="cls-3" d="M72.12,74.72s9.14,22.32-9.4,37.7-8,20.66-8,20.66c0,.16-19.92-5.63-17.43-27S66.13,73.23,66.13,73.23s4.8-1.52,4.82-1.51S72.12,74.72,72.12,74.72Z"/><path id="Tracé_55" data-name="Tracé 55" class="cls-4" d="M68.85,65.37S48,97.51,0,63.23c-.3-.51,36.2-24.58,66.61.36C66.55,63.57,68.85,65.37,68.85,65.37Z"/></g><g id="Mahnoor"><text class="cls-5" transform="translate(93.23 60.62)">N</text></g><g id="Mahnoor-2" data-name="Mahnoor"><text class="cls-6" transform="translate(128.15 60.62)">O</text></g><g id="Mahnoor-3" data-name="Mahnoor"><text class="cls-5" transform="translate(133.23 99.62)">R</text></g><g id="Mahnoor-4" data-name="Mahnoor"><text class="cls-7" transform="translate(92.19 99.62)">O</text></g></g></g></svg>